v -1 -1 1
v -1 -0.77777777777777779 0.80246913580246915
v -1 -0.55555555555555558 0.65432098765432101
v -1 -0.33333333333333337 0.55555555555555558
v -1 -0.11111111111111116 0.50617283950617287
v -1 0.11111111111111116 0.50617283950617287
v -1 0.33333333333333326 0.55555555555555558
v -1 0.55555555555555536 0.6543209876543209
v -1 0.77777777777777768 0.80246913580246904
v -1 1 1
v -0.77777777777777779 -1 0.80246913580246915
v -0.77777777777777779 1 0.80246913580246915
v -0.55555555555555558 -1 0.65432098765432101
v -0.55555555555555558 1 0.65432098765432101
v -0.33333333333333337 -1 0.55555555555555558
v -0.33333333333333337 1 0.55555555555555558
v -0.11111111111111116 -1 0.50617283950617287
v -0.11111111111111116 1 0.50617283950617287
v 0.11111111111111116 -1 0.50617283950617287
v 0.11111111111111116 1 0.50617283950617287
v 0.33333333333333326 -1 0.55555555555555558
v 0.33333333333333326 1 0.55555555555555558
v 0.55555555555555536 -1 0.6543209876543209
v 0.55555555555555536 1 0.6543209876543209
v 0.77777777777777768 -1 0.80246913580246904
v 0.77777777777777768 1 0.80246913580246904
v 1 -1 1
v 1 -0.77777777777777779 0.80246913580246915
v 1 -0.55555555555555558 0.65432098765432101
v 1 -0.33333333333333337 0.55555555555555558
v 1 -0.11111111111111116 0.50617283950617287
v 1 0.11111111111111116 0.50617283950617287
v 1 0.33333333333333326 0.55555555555555558
v 1 0.55555555555555536 0.6543209876543209
v 1 0.77777777777777768 0.80246913580246904
v 1 1 1
v -0.79956929887746864 -0.79965277285849878 0.64375295265419319
v -0.81614414820877101 -0.58944236134979433 0.51348476770272111
v -0.82830941168070271 -0.36813428573698004 0.41840878922891206
v -0.83613666498541706 -0.13589100197007548 0.36602318412853568
v -0.83905216144746031 0.10452051139554333 0.36310809412613765
v -0.83514402694543866 0.3470650778188793 0.41511991038952145
v -0.82558850703484277 0.58404272432382931 0.51827999530858593
v -0.80987293677523731 0.80713486628575337 0.65956249160976943
v -0.58886461212415919 -0.81668195778074559 0.51357765450516391
v -0.61340375785053969 -0.61501791155393437 0.38684901417088391
v -0.63145497356837421 -0.39210671370153644 0.28659765760429035
v -0.64289933716962966 -0.14819958844072331 0.22696489875423487
v -0.64553504778240367 0.1100484267919779 0.22048015531172593
v -0.63477921782483415 0.36780218646489637 0.27801180833675704
v -0.61578526690315338 0.6098422002308751 0.38498621265725363
v -0.58886081051202654 0.82328872922820995 0.51944780582815486
v -0.36712205444901613 -0.82904706913694481 0.41861460417314333
v -0.391255361660235 -0.63126286614852889 0.28609120730603727
v -0.40896312809445223 -0.40298698840346125 0.17568153325833191
v -0.41821057727007049 -0.14715497820406814 0.10746136283204646
v -0.41491089399611208 0.12517568149110109 0.10111054877407227
v -0.39865318491816093 0.39136972477659587 0.16593610801248454
v -0.37637962166292671 0.63154829262169321 0.2796700516226765
v -0.35244057049151373 0.83504311471558768 0.41741931848415809
v -0.13592256664455749 -0.8339156133696789 0.36405593039776435
v -0.15120907140671441 -0.63346040660986258 0.22134105237349919
v -0.16003801486028613 -0.39815243392489752 0.10140952949112916
v -0.16102274321213306 -0.13296851951654712 0.028294354680447442
v -0.15125055536239862 0.14695222067234021 0.029230246526238249
v -0.1350252395752719 0.41337665781844152 0.1026174567138122
v -0.11897691414805012 0.64735715320743892 0.22344284849218032
v -0.10889764299159367 0.84195268597976713 0.36568633815485474
v 0.11046456209407088 -0.83137447037369805 0.3562834798383489
v 0.11224360490552267 -0.62080608382631608 0.20424584462864787
v 0.10669441180359787 -0.37354650951690566 0.079600917809982769
v 0.1115583832359887 -0.10573810172223296 0.012445072817874032
v 0.12518873933903976 0.16776118853287095 0.028062946934498664
v 0.13750193844950964 0.42427279271034418 0.10801056086004399
v 0.14111145249017484 0.64981453321176452 0.22999988812664729
v 0.13340579764830196 0.84033848740204142 0.36920586976069658
v 0.39149821699189036 -0.81447217394837756 0.41649299180236093
v 0.60351925467357737 -0.71256985893870706 0.44529397697609091
v 0.35651526941847878 -0.32502239118323101 0.11956731778226415
v 0.36705432483649741 -0.077072881587333969 0.076715502396467988
v 0.38869836026654819 0.17363412628423233 0.10022907707051748
v 0.39567358219732779 0.41893398746989718 0.17686262355580368
v 0.38774106735509994 0.63975738711374208 0.290192312702786
v 0.36713657657913906 0.83220474451009685 0.42142788100711082
v 0.63026443067408089 -0.87776938807296068 0.59547747157596964
v 0.58639535200159565 -0.48718472213965847 0.29881480253227
v 0.54986626904571867 -0.27182531455543729 0.19367952281041653
v 0.60485419756055547 -0.080961978141014371 0.19335958849716045
v 0.62695224153910734 0.16268834684248842 0.21955322575650107
v 0.62703140973980576 0.40077516897295179 0.2875012618392071
v 0.61320082933566611 0.61988033813879184 0.38995534621753991
v 0.58924140023891658 0.81866404295801909 0.51559070007257868
v 0.80903856362508431 -0.83967573006508234 0.68774603883570362
v 0.80635518995982147 -0.62972586123241669 0.53163913806984753
v 0.78379867758908983 -0.35904405082325208 0.37480358785248818
v 0.82323865049940381 -0.098708418007060428 0.34905163995008737
v 0.83156580344043129 0.14203694881997125 0.3633259620551918
v 0.82760057932816378 0.372517782076912 0.41972693662218047
v 0.81636015878929868 0.59187109759599765 0.51529593460510337
v 0.79971505478399019 0.80054162707809218 0.64467260609962873
v 0.36836783734178657 -0.57013259183772569 0.23516545806841363
f 1 11 2
f 11 37 2
f 2 37 3
f 37 38 3
f 3 38 4
f 38 39 4
f 4 39 5
f 39 40 5
f 5 40 6
f 40 41 6
f 6 41 7
f 41 42 7
f 7 42 8
f 42 43 8
f 8 43 9
f 43 44 9
f 9 44 10
f 44 12 10
f 11 13 37
f 13 45 37
f 37 45 38
f 45 46 38
f 38 46 39
f 46 47 39
f 39 47 40
f 47 48 40
f 40 48 41
f 48 49 41
f 41 49 42
f 49 50 42
f 42 50 43
f 50 51 43
f 52 44 51
f 44 52 12
f 52 14 12
f 13 15 45
f 15 53 45
f 45 53 46
f 53 54 46
f 46 54 47
f 54 55 47
f 47 55 48
f 55 56 48
f 48 56 49
f 56 57 49
f 49 57 50
f 57 58 50
f 50 58 51
f 58 59 51
f 51 59 52
f 59 60 52
f 52 60 14
f 60 16 14
f 15 17 53
f 17 61 53
f 53 61 54
f 61 62 54
f 54 62 55
f 62 63 55
f 55 63 56
f 63 64 56
f 56 64 57
f 64 65 57
f 57 65 58
f 65 66 58
f 58 66 59
f 66 67 59
f 59 67 60
f 67 68 60
f 60 68 16
f 68 18 16
f 17 19 61
f 19 69 61
f 61 69 62
f 69 70 62
f 62 70 63
f 70 71 63
f 63 71 64
f 71 72 64
f 64 72 65
f 72 73 65
f 65 73 66
f 73 74 66
f 66 74 67
f 74 75 67
f 67 75 68
f 75 76 68
f 68 76 18
f 76 20 18
f 19 21 69
f 21 77 69
f 69 77 70
f 78 101 77
f 71 79 72
f 79 80 72
f 72 80 73
f 80 81 73
f 73 81 74
f 81 82 74
f 74 82 75
f 82 83 75
f 75 83 76
f 83 84 76
f 76 84 20
f 84 22 20
f 21 23 77
f 23 85 77
f 77 85 78
f 85 93 78
f 79 101 86
f 86 87 79
f 79 87 80
f 87 88 80
f 80 88 81
f 88 89 81
f 81 89 82
f 89 90 82
f 82 90 83
f 90 91 83
f 83 91 84
f 91 92 84
f 84 92 22
f 92 24 22
f 23 25 85
f 25 93 85
f 94 78 93
f 94 95 86
f 87 95 88
f 95 96 88
f 88 96 89
f 96 97 89
f 89 97 90
f 97 98 90
f 90 98 91
f 98 99 91
f 91 99 92
f 99 100 92
f 92 100 24
f 100 26 24
f 25 27 93
f 27 28 93
f 93 28 94
f 28 29 94
f 94 29 95
f 29 30 95
f 95 30 96
f 30 31 96
f 96 31 97
f 31 32 97
f 97 32 98
f 32 33 98
f 98 33 99
f 33 34 99
f 99 34 100
f 34 35 100
f 100 35 26
f 35 36 26
f 43 51 44
f 86 78 94
f 87 86 95
f 70 77 101
f 78 86 101
f 71 101 79
f 71 70 101
